<svg xmlns="http://www.w3.org/2000/svg" xmlns:xlink="http://www.w3.org/1999/xlink" width="28" height="28" viewBox="0 0 28 28"><defs><linearGradient id="b" x1="1073.403" x2="1097.116" y1="516.451" y2="544.308" gradientTransform="translate(-958.925 -462.595) scale(.89708)" gradientUnits="userSpaceOnUse" xlink:href="#a"/><linearGradient id="a"><stop offset="0" stop-color="#16ff6a"/><stop offset="1" stop-color="#0090a5"/></linearGradient></defs><rect width="28" height="28" fill="url(#b)" rx="5.917" ry="5.917"/><path fill="#fff" d="m 14,6.5 c -4.1735041,0 -7.4999999,3.428069 -7.4999999,7.5 0,4.080701 3.4192978,7.5 7.4999999,7.5 0.254496,0 0.507074,-0.01368 0.755859,-0.03906 0.248786,-0.02538 0.494612,-0.06177 0.736329,-0.111328 C 18.876217,20.655837 21.5,17.651816 21.5,14 l 0,-0.5 -0.101562,0 C 21.127596,9.662431 17.993014,6.5 14,6.5 Z m 0,1 c 0.421342,0 0.830829,0.04465 1.228516,0.121093 l -1.427735,0.978516 -1.226562,-0.9375 C 13.032732,7.558965 13.508553,7.5 14,7.5 Z m 2.40625,0.466797 c 1.058431,0.424675 1.975556,1.117636 2.671875,1.992187 L 18.199219,12.40039 16.5,13.099609 l -2,-1.5 -0.09961,-2.199219 2.005859,-1.433593 z m -4.943359,0.04883 1.9375,1.384765 0.09961,2.199217 L 11.59961,12.90039 9.5996109,12.298828 8.7656261,10.169922 C 9.4516052,9.234165 10.376955,8.47892 11.462891,8.015625 Z m 8.302734,3.001953 c 0.395289,0.759538 0.641078,1.602675 0.708984,2.490234 l -1.27539,-1.007812 0.566406,-1.482422 z m -11.6289061,0.205078 0.5625,1.476562 -1.1835938,0.97461 c 0.00555,-0.109438 0.00658,-0.220003 0.017578,-0.328125 0.076379,-0.750748 0.2892831,-1.464216 0.6035157,-2.123047 z M 14,12.40039 l 1.699219,1.298828 -0.699219,2 -2.099609,0 -0.701172,-2 L 14,12.40039 Z m 4.599609,0.798828 1.863282,1.490235 c -0.126826,1.198566 -0.585218,2.290472 -1.269532,3.199218 L 16.699219,17.599609 16,16.199218 16.800781,13.90039 18.599609,13.199218 Z m -9.0996091,0.201172 1.8007811,0.5 L 12,16.099609 l -1.199219,1.5 -2.1093747,0.08789 C 8.1237699,16.883222 7.7369074,15.950474 7.5820313,14.953125 L 9.4999999,13.40039 Z m 3.4003911,3.398438 2.298828,0 L 16,18.199218 15.041016,20.408203 c -0.340355,0.05571 -0.687023,0.0918 -1.041016,0.0918 -0.501098,0 -0.988728,-0.06588 -1.460937,-0.179688 l -0.738282,-2.220706 1.09961,-1.300781 z m 4,1.800781 1.535156,0.132812 c -0.615666,0.576081 -1.339879,1.031631 -2.136719,1.335938 l 0.601563,-1.46875 z m -6,0.09961 0.441406,1.203125 c -0.62261,-0.289133 -1.194175,-0.675075 -1.6972661,-1.136719 l 1.2558601,-0.06641 z" color="#000" font-family="sans-serif" font-weight="400" overflow="visible" style="line-height:normal;text-indent:0;text-align:start;text-decoration-line:none;text-decoration-style:solid;text-decoration-color:#000;text-transform:none;block-progression:tb;isolation:auto;mix-blend-mode:normal"/></svg>