<svg xmlns="http://www.w3.org/2000/svg" enable-background="new 0 0 50 50" viewBox="0 0 50 50"><path d="M38.84629,33.84665c-1.81774,0-3.60242-0.48615-5.15896-1.40622c-0.5192-0.30491-1.18872-0.13327-1.49577,0.38487
		c-0.30598,0.5192-0.13433,1.18873,0.38487,1.49577c1.89343,1.11836,4.06086,1.709,6.26986,1.709
		c0.21429,0,0.42325-0.02132,0.63461-0.03225c-3.31484,4.66988-11.25185,8.6777-16.32792,8.75419
		c-6.33916-1.79108-13.03867-4.55447-19.90769-8.2102c-0.43391-0.23668-0.71643-0.67273-0.75481-1.15461L1.00004,13.8558
		l9.27206-8.09933c0.66419-0.58423,1.61731-0.67485,2.38065-0.22069c5.05292,3.1478,6.14116,3.06775,6.49268,4.50756
		c0.31184,1.2854-0.62437,1.93207-1.42647,3.40946c-1.96564,3.10457-5.39779-0.14485-8.63559,3.03525
		c-0.9819,0.9819-1.54481,2.34653-1.54481,3.74529c0,0.3305,0.15032,0.64287,0.40726,0.85077
		c2.09386,1.68661,7.51616,6.92446,7.45539,10.84992c-0.00959,0.60343,0.47229,1.09917,1.07465,1.10877
		c0.0064,0,0.01173,0,0.01706,0c0.5949,0,1.08211-0.47762,1.09171-1.07465c0.00693-0.46043-0.05224-0.92566-0.13966-1.39169
		c0.06876-0.12447,0.11781-0.2616,0.13326-0.41219c0.54665-5.22946,4.53288-9.42252,9.57751-10.38029
		c-0.41259,1.23044-0.64554,2.54243-0.64554,3.91c0,0.60342,0.48828,1.09171,1.09171,1.09171
		c0.60342,0,1.09171-0.48828,1.09171-1.09171c0-5.59927,4.55447-10.15374,10.15268-10.15374
		c5.59927,0,10.15374,4.55447,10.15374,10.15374C49.00003,29.29217,44.44556,33.84665,38.84629,33.84665z"/></svg>