<svg xmlns="http://www.w3.org/2000/svg" enable-background="new 0 0 64 64" viewBox="0 0 64 64"><path fill="#2f79bb" d="M24.9958839,32c0,3.8622818,3.1419716,7.0042534,7.0041161,7.0042534S39.0041161,35.8622818,39.0041161,32
					c0-3.8620071-3.1419716-7.0039787-7.0041161-7.0039787S24.9958839,28.1379929,24.9958839,32z M34.5168381,32
					c0,1.3877602-1.1290779,2.5169754-2.5168381,2.5169754c-1.3877583,0-2.5168362-1.1292152-2.5168362-2.5169754
					c0-1.3877583,1.1290779-2.5167007,2.5168362-2.5167007C33.3877602,29.4832993,34.5168381,30.6122417,34.5168381,32z"/><path fill="#3f4857" d="M32 21.6549358c1.2391777 0 2.2436409-1.0045986 2.2436409-2.243639V5.2631102c0-1.2390413-1.0044632-2.2436399-2.2436409-2.2436399s-2.243639 1.0045986-2.243639 2.2436399v14.1481867C29.756361 20.6503372 30.7608223 21.6549358 32 21.6549358zM21.6549358 32c0-1.2390404-1.0044613-2.243639-2.243639-2.243639H5.2631102c-1.2391782 0-2.2436399 1.0045986-2.2436399 2.243639s1.0044618 2.2436409 2.2436399 2.2436409h14.1481867C20.6504745 34.2436409 21.6549358 33.2390404 21.6549358 32zM27.5127201 11.9617109V7.3826985c-10.2061195 1.85572-18.2736683 9.923851-20.129406 20.130022h4.5833783C13.69629 19.7874393 19.7884483 13.6912403 27.5127201 11.9617109zM11.9617109 36.487278H7.3826985c1.8557029 10.2060699 9.9238167 18.2736702 20.130022 20.129406v-4.5833778C19.7874393 50.3037109 13.6912403 44.2115517 11.9617109 36.487278zM32 42.3450623c-1.2391777 0-2.243639 1.0046005-2.243639 2.2436409v14.1481857c0 1.2390442 1.0044613 2.2436409 2.243639 2.2436409s2.2436409-1.0045967 2.2436409-2.2436409V44.5887032C34.2436409 43.3496628 33.2391777 42.3450623 32 42.3450623zM52.0382881 27.5127201h4.5790138c-1.8557053-10.206068-9.9238167-18.2736683-20.130024-20.129406v4.5833783C44.2125626 13.69629 50.3087578 19.7884483 52.0382881 27.5127201zM36.487278 52.0333061v4.5833778c10.2062073-1.8557358 18.2743187-9.923336 20.130024-20.129406h-4.5790138C50.3087578 44.2115517 44.2125626 50.3037109 36.487278 52.0333061zM36.487278 47.4394379c5.2645226-1.532711 9.4214516-5.6886635 10.9544334-10.9521599h-2.8530083c-.6232529 0-1.2169418-.1282959-1.7568665-.3589554-1.1769905 3.0757637-3.6271019 5.5267143-6.7035828 6.7032928.2307129.5399742.359024 1.1337509.359024 1.7570877V47.4394379zM21.1682663 36.1282883c-.5399418.2306938-1.1336842.3589897-1.7569695.3589897h-2.8528557c1.5329685 5.2634811 5.6898422 9.4194298 10.9542789 10.9521408v-2.8507156c0-.6233368.1283302-1.2171135.3590431-1.7570877C24.7952995 41.6550179 22.3452206 39.2040672 21.1682663 36.1282883zM42.8314781 27.87183c.5400085-.2307625 1.1338196-.3591099 1.757225-.3591099h2.8505974c-1.5326767-5.2644882-5.6885605-9.4213448-10.9520226-10.9542961v2.8528728c0 .6233196-.1282959 1.2170448-.359005 1.7570038C39.2039642 22.3452892 41.6548996 24.7954025 42.8314781 27.87183zM27.5127201 16.5584412c-5.2633743 1.5329685-9.4192066 5.6898079-10.9518833 10.9542789h2.8504601c.6234398 0 1.2172852.1283646 1.757328.3591442 1.1765442-3.0764275 3.6274281-5.5265408 6.7031212-6.7035484-.2307129-.539957-.359026-1.1336994-.359026-1.757019V16.5584412zM58.7368889 29.756361H44.5887032c-1.2391777 0-2.2436409 1.0045986-2.2436409 2.243639s1.0044632 2.2436409 2.2436409 2.2436409h14.1481857c1.2390442 0 2.2436409-1.0046005 2.2436409-2.2436409S59.9759331 29.756361 58.7368889 29.756361z"/></svg>