<svg xmlns="http://www.w3.org/2000/svg" width="32" height="32" enable-background="new 0 0 32 32" viewBox="0 0 32 32"><path d="M 15.998047 0 A 3 3 0 0 0 12.998047 3 A 3 3 0 0 0 15.998047 6 A 3 3 0 0 0 18.998047 3 A 3 3 0 0 0 15.998047 0 z M 12.998047 7 C 12.990647 7 12.983883 7.0037262 12.976562 7.0039062 C 12.585327 6.9981662 12.192627 7.1408691 11.894531 7.4394531 L 7.4179688 11.916016 C 6.8320312 12.501953 6.8320312 13.45166 7.4179688 14.037109 L 11.943359 18.560547 C 11.959655 18.576843 12 18.582275 12 18.597656 L 12 20.5 L 12 21 L 12 30.5 C 12 31.328613 12.671387 32 13.5 32 C 14.328613 32 15 31.328613 15 30.5 L 15 23 L 17 23 L 17 30.5 C 17 31.328613 17.671387 32 18.5 32 C 19.328613 32 20 31.328613 20 30.5 L 20 21 L 20 20.5 L 20 18.601562 C 20 18.584782 20.040714 18.578427 20.058594 18.560547 L 24.582031 14.037109 C 25.167969 13.45166 25.167968 12.501953 24.582031 11.916016 L 20.105469 7.4394531 C 19.806213 7.1401977 19.413452 6.9974976 19.021484 7.0039062 C 19.013305 7.0037231 19.006286 7 18.998047 7 L 12.998047 7 z M 20 11.574219 L 21.402344 12.976562 L 20 14.378906 L 20 11.574219 z M 12 11.580078 L 12 14.373047 L 10.603516 12.976562 L 12 11.580078 z "/></svg>